<svg width="25" height="24" viewBox="0 0 25 24" fill="none" xmlns="http://www.w3.org/2000/svg">
<path d="M0.5 12C0.5 5.37258 5.87258 0 12.5 0C19.1274 0 24.5 5.37258 24.5 12C24.5 18.6274 19.1274 24 12.5 24C5.87258 24 0.5 18.6274 0.5 12Z" fill="#004AEA"/>
<path d="M12 6.5V5C12 4.86739 12.0527 4.74021 12.1464 4.64645C12.2402 4.55268 12.3674 4.5 12.5 4.5C12.6326 4.5 12.7598 4.55268 12.8536 4.64645C12.9473 4.74021 13 4.86739 13 5V6.5C13 6.63261 12.9473 6.75979 12.8536 6.85355C12.7598 6.94732 12.6326 7 12.5 7C12.3674 7 12.2402 6.94732 12.1464 6.85355C12.0527 6.75979 12 6.63261 12 6.5ZM12.5 8C11.7089 8 10.9355 8.2346 10.2777 8.67412C9.61992 9.11365 9.10723 9.73836 8.80448 10.4693C8.50173 11.2002 8.42252 12.0044 8.57686 12.7804C8.7312 13.5563 9.11216 14.269 9.67157 14.8284C10.231 15.3878 10.9437 15.7688 11.7196 15.9231C12.4956 16.0775 13.2998 15.9983 14.0307 15.6955C14.7616 15.3928 15.3864 14.8801 15.8259 14.2223C16.2654 13.5645 16.5 12.7911 16.5 12C16.4988 10.9395 16.077 9.92275 15.3271 9.17285C14.5773 8.42296 13.5605 8.00116 12.5 8ZM8.14625 8.35375C8.24007 8.44757 8.36732 8.50028 8.5 8.50028C8.63268 8.50028 8.75993 8.44757 8.85375 8.35375C8.94757 8.25993 9.00028 8.13268 9.00028 8C9.00028 7.86732 8.94757 7.74007 8.85375 7.64625L7.85375 6.64625C7.75993 6.55243 7.63268 6.49972 7.5 6.49972C7.36732 6.49972 7.24007 6.55243 7.14625 6.64625C7.05243 6.74007 6.99972 6.86732 6.99972 7C6.99972 7.13268 7.05243 7.25993 7.14625 7.35375L8.14625 8.35375ZM8.14625 15.6462L7.14625 16.6462C7.05243 16.7401 6.99972 16.8673 6.99972 17C6.99972 17.1327 7.05243 17.2599 7.14625 17.3538C7.24007 17.4476 7.36732 17.5003 7.5 17.5003C7.63268 17.5003 7.75993 17.4476 7.85375 17.3538L8.85375 16.3538C8.90021 16.3073 8.93706 16.2521 8.9622 16.1914C8.98734 16.1308 9.00028 16.0657 9.00028 16C9.00028 15.9343 8.98734 15.8692 8.9622 15.8086C8.93706 15.7479 8.90021 15.6927 8.85375 15.6462C8.8073 15.5998 8.75214 15.5629 8.69145 15.5378C8.63075 15.5127 8.5657 15.4997 8.5 15.4997C8.4343 15.4997 8.36925 15.5127 8.30855 15.5378C8.24786 15.5629 8.19271 15.5998 8.14625 15.6462ZM16.5 8.5C16.5657 8.50005 16.6307 8.48716 16.6914 8.46207C16.7521 8.43697 16.8073 8.40017 16.8538 8.35375L17.8538 7.35375C17.9476 7.25993 18.0003 7.13268 18.0003 7C18.0003 6.86732 17.9476 6.74007 17.8538 6.64625C17.7599 6.55243 17.6327 6.49972 17.5 6.49972C17.3673 6.49972 17.2401 6.55243 17.1462 6.64625L16.1462 7.64625C16.0762 7.71618 16.0286 7.8053 16.0092 7.90235C15.9899 7.99939 15.9998 8.09998 16.0377 8.1914C16.0756 8.28281 16.1397 8.36092 16.222 8.41586C16.3043 8.4708 16.4011 8.50008 16.5 8.5ZM16.8538 15.6462C16.7599 15.5524 16.6327 15.4997 16.5 15.4997C16.3673 15.4997 16.2401 15.5524 16.1462 15.6462C16.0524 15.7401 15.9997 15.8673 15.9997 16C15.9997 16.1327 16.0524 16.2599 16.1462 16.3538L17.1462 17.3538C17.1927 17.4002 17.2479 17.4371 17.3086 17.4622C17.3692 17.4873 17.4343 17.5003 17.5 17.5003C17.5657 17.5003 17.6308 17.4873 17.6914 17.4622C17.7521 17.4371 17.8073 17.4002 17.8538 17.3538C17.9002 17.3073 17.9371 17.2521 17.9622 17.1914C17.9873 17.1308 18.0003 17.0657 18.0003 17C18.0003 16.9343 17.9873 16.8692 17.9622 16.8086C17.9371 16.7479 17.9002 16.6927 17.8538 16.6462L16.8538 15.6462ZM7.5 12C7.5 11.8674 7.44732 11.7402 7.35355 11.6464C7.25979 11.5527 7.13261 11.5 7 11.5H5.5C5.36739 11.5 5.24021 11.5527 5.14645 11.6464C5.05268 11.7402 5 11.8674 5 12C5 12.1326 5.05268 12.2598 5.14645 12.3536C5.24021 12.4473 5.36739 12.5 5.5 12.5H7C7.13261 12.5 7.25979 12.4473 7.35355 12.3536C7.44732 12.2598 7.5 12.1326 7.5 12ZM12.5 17C12.3674 17 12.2402 17.0527 12.1464 17.1464C12.0527 17.2402 12 17.3674 12 17.5V19C12 19.1326 12.0527 19.2598 12.1464 19.3536C12.2402 19.4473 12.3674 19.5 12.5 19.5C12.6326 19.5 12.7598 19.4473 12.8536 19.3536C12.9473 19.2598 13 19.1326 13 19V17.5C13 17.3674 12.9473 17.2402 12.8536 17.1464C12.7598 17.0527 12.6326 17 12.5 17ZM19.5 11.5H18C17.8674 11.5 17.7402 11.5527 17.6464 11.6464C17.5527 11.7402 17.5 11.8674 17.5 12C17.5 12.1326 17.5527 12.2598 17.6464 12.3536C17.7402 12.4473 17.8674 12.5 18 12.5H19.5C19.6326 12.5 19.7598 12.4473 19.8536 12.3536C19.9473 12.2598 20 12.1326 20 12C20 11.8674 19.9473 11.7402 19.8536 11.6464C19.7598 11.5527 19.6326 11.5 19.5 11.5Z" fill="white"/>
</svg>
