<svg width="186" height="28" viewBox="0 0 186 28" fill="none"
    xmlns="http://www.w3.org/2000/svg">
    <g clip-path="url(#clip0_2096_82)">
        <path d="M172.981 19.2948C172.779 19.0908 172.677 18.8481 172.677 18.5646C172.677 18.2811 172.779 18.0384 172.981 17.8344C173.185 17.6325 173.427 17.5305 173.711 17.5305C173.994 17.5305 174.237 17.6325 174.441 17.8344C174.645 18.0363 174.745 18.2811 174.745 18.5646C174.745 18.8481 174.643 19.0908 174.441 19.2948C174.239 19.4988 173.994 19.5987 173.711 19.5987C173.425 19.5987 173.183 19.4967 172.981 19.2948Z" fill="#004CEA"/>
        <path d="M176.261 14.6892L177.43 17.6263L178.609 14.6892H180.233L178.117 19.5211H176.765L174.647 14.6892H176.261Z" fill="#004CEA"/>
        <path d="M182.281 14.6893V15.1829C182.403 15.0034 182.582 14.8586 182.817 14.7485C183.052 14.6383 183.321 14.5833 183.625 14.5833C184.21 14.5833 184.669 14.7791 185.001 15.1727C185.334 15.5664 185.499 16.0844 185.499 16.7289V19.5212H184.041V16.9798C184.041 16.6392 183.976 16.374 183.843 16.1884C183.71 16.0008 183.517 15.909 183.258 15.909C182.968 15.909 182.733 16.0151 182.552 16.2272C182.372 16.4393 182.281 16.7555 182.281 17.1736V19.5212H180.822V14.6893H182.281Z" fill="#004CEA"/>
        <path d="M24.0127 18.4402L18.7883 15.4256C17.9621 14.9484 16.9074 15.2319 16.4301 16.0579C15.9527 16.884 16.2363 17.9385 17.0625 18.4157L22.2869 21.4303C23.1131 21.9076 24.1677 21.6241 24.6451 20.798C25.1225 19.972 24.8389 18.9175 24.0127 18.4402Z" fill="#004CEA"/>
        <path d="M8.76924 11.6362C9.2466 10.8101 8.96304 9.75562 8.13684 9.27835L2.74924 6.16588C1.92305 5.68861 0.868374 5.97211 0.391018 6.79816C-0.0863392 7.62421 0.197219 8.6787 1.02341 9.15597L6.41102 12.2664C7.23721 12.7437 8.29188 12.4602 8.76924 11.6362Z" fill="#004CEA"/>
        <path d="M14.2487 14.8036L23.851 9.26195C24.1223 9.1049 24.3365 8.88666 24.4833 8.6317C24.7832 8.11364 24.8036 7.45688 24.4833 6.9021C24.008 6.07605 22.9513 5.79458 22.1251 6.27185L14.2508 10.8202L14.2467 10.8223V10.7835L14.2508 1.72756C14.2508 0.773019 13.4776 0 12.525 0C11.5723 0 10.7991 0.770979 10.7971 1.72552V8.19522L10.793 12.7252L6.79871 15.1198L0.86235 18.5484C0.036156 19.0236 -0.245362 20.0801 0.229955 20.9041C0.707311 21.7322 1.76198 22.0137 2.58818 21.5364L10.7971 16.6984V16.8004V26.2765C10.7971 27.229 11.5702 28.0041 12.525 28.002C13.1655 28.0041 13.7224 27.6553 14.0203 27.1393C14.1671 26.8864 14.2508 26.5927 14.2508 26.2786L14.2487 14.8036Z" fill="#004CEA"/>
        <path d="M34.4406 19.7456C33.6124 19.7456 32.8453 19.5131 32.1599 19.0542C31.4683 18.5912 30.9135 17.9589 30.5075 17.1757C30.1015 16.3904 29.8955 15.5276 29.8955 14.6098C29.8955 13.692 30.1015 12.8292 30.5075 12.044C30.9114 11.2607 31.4683 10.6285 32.1599 10.1655C32.8453 9.70655 33.6124 9.47403 34.4406 9.47403C35.0322 9.47403 35.5585 9.59029 36.0053 9.81873C36.4541 10.0492 36.8111 10.3286 37.064 10.6448C37.1028 10.6937 37.1619 10.7223 37.2231 10.7223C37.2456 10.7223 37.268 10.7182 37.2905 10.71C37.3721 10.6815 37.4271 10.604 37.4271 10.5183V4.58301H40.1097V19.5212H37.4271V18.7013C37.4271 18.6156 37.3721 18.5381 37.2905 18.5096C37.268 18.5014 37.2456 18.4973 37.2231 18.4973C37.1619 18.4973 37.1028 18.5239 37.064 18.5748C36.8111 18.891 36.4541 19.1704 36.0053 19.4009C35.5585 19.6293 35.0322 19.7456 34.4406 19.7456ZM35.1362 11.8686C34.3835 11.8686 33.7633 12.1317 33.2962 12.6518C32.8331 13.1658 32.5985 13.8246 32.5985 14.6098C32.5985 15.3951 32.8331 16.0539 33.2962 16.5679C33.7633 17.088 34.3835 17.3511 35.1362 17.3511C35.889 17.3511 36.5091 17.088 36.9763 16.5679C37.4394 16.0539 37.674 15.3951 37.674 14.6098C37.674 13.8246 37.4394 13.1658 36.9763 12.6518C36.5071 12.1317 35.889 11.8686 35.1362 11.8686Z" fill="black"/>
        <path d="M72.7116 19.6435C71.5672 19.6435 70.6166 19.3253 69.8863 18.7012C69.1661 18.0832 68.801 17.1674 68.801 15.9804V12.1744C68.801 12.0622 68.7092 11.9705 68.597 11.9705H66.7549V9.69831H68.597C68.7092 9.69831 68.801 9.60652 68.801 9.49434V6.85303H71.4836V9.49434C71.4836 9.60652 71.5754 9.69831 71.6876 9.69831H74.3497V11.9705H71.6876C71.5754 11.9705 71.4836 12.0622 71.4836 12.1744V15.346C71.4836 16.013 71.6406 16.5107 71.9528 16.8207C72.2628 17.1327 72.7606 17.2898 73.4277 17.2898C73.7786 17.2898 74.0886 17.2551 74.3497 17.1858V19.4885C73.9336 19.5905 73.3848 19.6435 72.7116 19.6435Z" fill="black"/>
        <path d="M94.466 19.7456C93.8724 19.7456 93.3318 19.6253 92.8585 19.3887C92.3873 19.1541 92.0486 18.8849 91.8528 18.5891C91.814 18.532 91.7508 18.4973 91.6835 18.4973C91.6631 18.4973 91.6447 18.4994 91.6243 18.5055C91.5386 18.532 91.4795 18.6116 91.4795 18.7013V19.5212H88.7969V4.58301H91.4795V10.5183C91.4795 10.6081 91.5386 10.6876 91.6243 10.7141C91.6447 10.7202 91.6631 10.7223 91.6835 10.7223C91.7508 10.7223 91.814 10.6897 91.8528 10.6305C92.0486 10.3348 92.3873 10.0655 92.8585 9.83097C93.3318 9.59437 93.8724 9.47403 94.466 9.47403C95.2942 9.47403 96.0613 9.70655 96.7467 10.1655C97.4383 10.6285 97.9931 11.2607 98.3991 12.044C98.805 12.8292 99.0111 13.694 99.0111 14.6098C99.0111 15.5256 98.805 16.3904 98.3991 17.1757C97.9931 17.9609 97.4383 18.5912 96.7467 19.0542C96.0613 19.5131 95.2942 19.7456 94.466 19.7456ZM93.7704 11.8686C93.0176 11.8686 92.3975 12.1317 91.9303 12.6518C91.4672 13.1658 91.2326 13.8246 91.2326 14.6098C91.2326 15.3951 91.4672 16.0539 91.9303 16.5679C92.3975 17.088 93.0176 17.3511 93.7704 17.3511C94.5231 17.3511 95.1433 17.088 95.6104 16.5679C96.0735 16.0539 96.3081 15.3951 96.3081 14.6098C96.3081 13.8246 96.0735 13.1658 95.6104 12.6518C95.1433 12.1317 94.5231 11.8686 93.7704 11.8686Z" fill="black"/>
        <path d="M105.947 19.7457C104.949 19.7457 104.044 19.5234 103.252 19.0869C102.465 18.6504 101.84 18.0324 101.396 17.2512C100.951 16.468 100.727 15.5726 100.727 14.5895C100.727 13.6207 100.955 12.7375 101.406 11.9604C101.857 11.1854 102.483 10.5714 103.272 10.1329C104.064 9.6944 104.964 9.47412 105.947 9.47412C106.93 9.47412 107.838 9.70052 108.642 10.1452C109.441 10.5878 110.082 11.2527 110.545 12.1195C110.986 12.9456 111.208 13.9552 111.208 15.1239H103.53C103.472 15.1239 103.417 15.1484 103.379 15.1912C103.34 15.234 103.321 15.2911 103.328 15.3482C103.387 15.9581 103.658 16.4762 104.135 16.8841C104.609 17.29 105.272 17.496 106.11 17.496C106.589 17.496 107.034 17.396 107.43 17.1982C107.787 17.0187 108.044 16.7964 108.199 16.5333H111.024C110.688 17.4429 110.086 18.1976 109.229 18.7809C108.287 19.4214 107.183 19.7457 105.947 19.7457ZM105.865 11.5199C105.235 11.5199 104.7 11.6851 104.276 12.0135C103.854 12.3398 103.564 12.7742 103.417 13.3066C103.401 13.3678 103.413 13.433 103.452 13.484C103.491 13.535 103.55 13.5636 103.615 13.5636H107.995C108.058 13.5636 108.117 13.535 108.156 13.484C108.195 13.433 108.207 13.3678 108.191 13.3066C108.028 12.7008 107.72 12.2439 107.277 11.9523C106.844 11.6667 106.369 11.5199 105.865 11.5199Z" fill="black"/>
        <path d="M120.355 19.5213V14.3427C120.355 13.5799 120.202 12.9762 119.898 12.5478C119.58 12.0971 119.106 11.8686 118.492 11.8686C117.819 11.8686 117.264 12.1195 116.842 12.6151C116.43 13.1006 116.22 13.8206 116.22 14.7527V19.5213H113.537V9.69848H116.22V10.5388C116.22 10.6285 116.279 10.7081 116.365 10.7346C116.385 10.7407 116.405 10.7428 116.424 10.7428C116.491 10.7428 116.554 10.7101 116.593 10.653C116.83 10.3042 117.185 10.0187 117.646 9.8025C118.115 9.58426 118.66 9.47412 119.267 9.47412C120.457 9.47412 121.358 9.85961 122.028 10.651C122.695 11.4424 123.033 12.505 123.033 13.8144V19.5234H120.355V19.5213Z" fill="black"/>
        <path d="M128.654 19.5213L124.35 9.69849H127.318L129.743 15.7909C129.774 15.8684 129.849 15.9193 129.933 15.9193C130.017 15.9193 130.092 15.8684 130.123 15.7909L132.569 9.69849H135.557L131.253 19.5213H128.654Z" fill="black"/>
        <path d="M47.3547 19.5213C44.7353 19.5213 42.5811 17.4756 42.4485 14.8628C42.4444 14.7792 42.4424 14.6935 42.4424 14.6099C42.4424 14.5263 42.4444 14.4406 42.4485 14.357C42.5117 13.1434 43.0197 12.0012 43.8826 11.1385C44.8108 10.2104 46.045 9.69849 47.3547 9.69849H52.6566V19.5213H47.3547ZM47.6811 11.8686C46.9283 11.8686 46.3082 12.1318 45.843 12.6519C45.38 13.1638 45.1454 13.8226 45.1454 14.6099C45.1454 15.3972 45.38 16.056 45.843 16.568C46.3102 17.0881 46.9283 17.3512 47.6811 17.3512C48.4338 17.3512 49.054 17.0881 49.5211 16.568C49.9842 16.056 50.2188 15.3972 50.2188 14.6099C50.2188 13.8247 49.9842 13.1659 49.5211 12.6519C49.054 12.1318 48.4338 11.8686 47.6811 11.8686Z" fill="black"/>
        <path d="M62.3256 9.69849V14.6956C62.3256 15.9132 61.3342 16.9045 60.1163 16.9045C58.8984 16.9045 57.907 15.9132 57.907 14.6956V9.69849H55.4814V14.8873C55.4814 17.447 57.5582 19.5234 60.1183 19.5234C62.6785 19.5234 64.7552 17.447 64.7552 14.8873V9.69849H62.3256Z" fill="black"/>
        <path d="M83.7826 9.69849V14.6956C83.7826 15.9132 82.7912 16.9045 81.5733 16.9045C80.3555 16.9045 79.364 15.9132 79.364 14.6956V9.69849H76.9385V14.8873C76.9385 17.447 79.0152 19.5234 81.5754 19.5234C84.1355 19.5234 86.2122 17.447 86.2122 14.8873V9.69849H83.7826Z" fill="black"/>
        <path d="M144.29 9.69849V14.6956C144.29 15.9132 143.299 16.9045 142.081 16.9045C140.863 16.9045 139.872 15.9132 139.872 14.6956V9.69849H137.446V14.8873C137.446 17.447 139.523 19.5234 142.083 19.5234C144.643 19.5234 146.72 17.447 146.72 14.8873V9.69849H144.29Z" fill="black"/>
        <path d="M155.578 19.5212V14.5241C155.578 13.3064 154.586 12.3152 153.368 12.3152C152.15 12.3152 151.159 13.3064 151.159 14.5241V19.5212H148.733V14.3324C148.733 11.7726 150.81 9.69629 153.37 9.69629C155.93 9.69629 158.007 11.7726 158.007 14.3324V19.5212H155.578Z" fill="black"/>
        <path d="M165.015 9.69849C162.302 9.69849 160.103 11.8972 160.103 14.6099C160.103 17.3226 162.302 19.5213 165.015 19.5213C167.728 19.5213 169.927 17.3226 169.927 14.6099C169.927 11.8972 167.728 9.69849 165.015 9.69849ZM165.015 17.1982C163.585 17.1982 162.426 16.0397 162.426 14.6099C162.426 13.1801 163.585 12.0216 165.015 12.0216C166.445 12.0216 167.604 13.1801 167.604 14.6099C167.604 16.0397 166.445 17.1982 165.015 17.1982Z" fill="black"/>
        <path d="M167.224 20.4229V20.5085C167.224 21.7262 166.233 22.7174 165.015 22.7174C163.797 22.7174 162.805 21.7262 162.805 20.5085V20.4229H160.38V20.6982C160.38 23.2579 162.457 25.3343 165.017 25.3343C167.577 25.3343 169.654 23.2579 169.654 20.6982V20.4229H167.224Z" fill="black"/>
    </g>
    <defs>
        <clipPath id="clip0_2096_82">
            <rect width="185.5" height="28" fill="black"/>
        </clipPath>
    </defs>
</svg>
